<svg width="16" height="16" viewBox="0 0 16 16" fill="none" xmlns="http://www.w3.org/2000/svg">
<path fill-rule="evenodd" clip-rule="evenodd" d="M14.6666 8.00004C14.6666 11.682 11.682 14.6667 7.99998 14.6667C4.31798 14.6667 1.33331 11.682 1.33331 8.00004C1.33331 4.31804 4.31798 1.33337 7.99998 1.33337C11.682 1.33337 14.6666 4.31804 14.6666 8.00004ZM7.99998 5.16671C7.58598 5.16671 7.24998 5.50271 7.24998 5.91671C7.24998 6.04932 7.1973 6.17649 7.10353 6.27026C7.00976 6.36403 6.88259 6.41671 6.74998 6.41671C6.61737 6.41671 6.49019 6.36403 6.39643 6.27026C6.30266 6.17649 6.24998 6.04932 6.24998 5.91671C6.24999 5.63 6.32044 5.34768 6.45514 5.09459C6.58984 4.84149 6.78466 4.62537 7.02247 4.46522C7.26028 4.30507 7.5338 4.2058 7.81897 4.17615C8.10414 4.14649 8.39223 4.18736 8.65791 4.29515C8.92358 4.40294 9.1587 4.57435 9.3426 4.79432C9.52649 5.01428 9.65352 5.27606 9.71252 5.55663C9.77152 5.83721 9.76069 6.12798 9.68096 6.40338C9.60124 6.67878 9.45507 6.93038 9.25531 7.13604C9.19398 7.19915 9.13531 7.25848 9.07931 7.31404C8.9443 7.4434 8.81718 7.58076 8.69865 7.72537C8.55198 7.91337 8.49998 8.05137 8.49998 8.16671V8.66671C8.49998 8.79932 8.4473 8.92649 8.35353 9.02026C8.25976 9.11403 8.13259 9.16671 7.99998 9.16671C7.86737 9.16671 7.74019 9.11403 7.64643 9.02026C7.55266 8.92649 7.49998 8.79932 7.49998 8.66671V8.16671C7.49998 7.73004 7.70331 7.37604 7.90931 7.11137C8.06198 6.91537 8.25331 6.72471 8.40931 6.56871C8.45642 6.52204 8.49931 6.47893 8.53798 6.43937C8.64072 6.33364 8.71002 6.19997 8.73722 6.05507C8.76442 5.91017 8.74831 5.76047 8.69091 5.62468C8.6335 5.48888 8.53735 5.37302 8.41446 5.29157C8.29158 5.21011 8.14741 5.16668 7.99998 5.16671ZM7.99998 11.3334C8.17679 11.3334 8.34636 11.2631 8.47138 11.1381C8.59641 11.0131 8.66665 10.8435 8.66665 10.6667C8.66665 10.4899 8.59641 10.3203 8.47138 10.1953C8.34636 10.0703 8.17679 10 7.99998 10C7.82317 10 7.6536 10.0703 7.52857 10.1953C7.40355 10.3203 7.33331 10.4899 7.33331 10.6667C7.33331 10.8435 7.40355 11.0131 7.52857 11.1381C7.6536 11.2631 7.82317 11.3334 7.99998 11.3334Z" fill="#888888"/>
</svg>
