<svg width="25" height="24" viewBox="0 0 25 24" fill="none" xmlns="http://www.w3.org/2000/svg">
<path d="M2.33331 16.9C2.33331 15.59 2.33331 14.936 2.62831 14.455C2.79318 14.186 3.01934 13.9599 3.28831 13.795C3.76831 13.5 4.42431 13.5 5.73331 13.5H6.83331C8.71931 13.5 9.66131 13.5 10.2473 14.086C10.8333 14.672 10.8333 15.614 10.8333 17.5V18.6C10.8333 19.91 10.8333 20.564 10.5383 21.045C10.3734 21.314 10.1473 21.5401 9.87831 21.705C9.39831 22 8.74231 22 7.43331 22C5.46931 22 4.48731 22 3.76631 21.558C3.36285 21.3107 3.02361 20.9715 2.77631 20.568M22.3333 7.1C22.3333 8.41 22.3333 9.064 22.0383 9.545C21.8734 9.81398 21.6473 10.0401 21.3783 10.205C20.8983 10.5 20.2423 10.5 18.9333 10.5H17.8333C15.9473 10.5 15.0053 10.5 14.4193 9.914C13.8333 9.328 13.8333 8.386 13.8333 6.5V5.4C13.8333 4.09 13.8333 3.436 14.1283 2.955C14.2932 2.68602 14.5193 2.45987 14.7883 2.295C15.2683 2 15.9243 2 17.2333 2C19.1973 2 20.1793 2 20.9013 2.442C21.3048 2.6893 21.644 3.02854 21.8913 3.432" stroke="white" stroke-linecap="round"/>
<path d="M16.8333 6.25C16.8333 5.735 16.8333 5.477 16.9633 5.295C17.0086 5.2308 17.0644 5.17468 17.1283 5.129C17.3103 5 17.5683 5 18.0833 5C18.5983 5 18.8563 5 19.0383 5.13C19.1025 5.17529 19.1586 5.23107 19.2043 5.295C19.3333 5.477 19.3333 5.735 19.3333 6.25C19.3333 6.765 19.3333 7.023 19.2033 7.205C19.158 7.2692 19.1022 7.32532 19.0383 7.371C18.8563 7.5 18.5983 7.5 18.0833 7.5C17.5683 7.5 17.3103 7.5 17.1283 7.37C17.0641 7.32471 17.008 7.26893 16.9623 7.205C16.8333 7.023 16.8333 6.765 16.8333 6.25ZM13.0833 22C13.0833 22.1989 13.1623 22.3897 13.303 22.5303C13.4436 22.671 13.6344 22.75 13.8333 22.75C14.0322 22.75 14.223 22.671 14.3636 22.5303C14.5043 22.3897 14.5833 22.1989 14.5833 22H13.0833ZM19.3333 12.75H17.3333V14.25H19.3333V12.75ZM13.0833 19V22H14.5833V19H13.0833ZM17.3333 12.75C16.6463 12.75 16.0753 12.75 15.6143 12.796C15.1403 12.844 14.7013 12.949 14.3053 13.214L15.1393 14.461C15.2473 14.388 15.4113 14.324 15.7663 14.288C16.1333 14.251 16.6163 14.25 17.3333 14.25V12.75ZM14.5833 17C14.5833 16.282 14.5833 15.8 14.6213 15.433C14.6573 15.078 14.7213 14.914 14.7943 14.806L13.5473 13.972C13.2833 14.368 13.1773 14.807 13.1293 15.281C13.0823 15.742 13.0833 16.313 13.0833 17H14.5833ZM14.3053 13.214C14.0053 13.414 13.7473 13.672 13.5473 13.972L14.7943 14.806C14.8865 14.6703 15.0036 14.5532 15.1393 14.461L14.3053 13.214ZM23.0833 13.5C23.0833 13.3011 23.0043 13.1103 22.8636 12.9697C22.723 12.829 22.5322 12.75 22.3333 12.75C22.1344 12.75 21.9436 12.829 21.803 12.9697C21.6623 13.1103 21.5833 13.3011 21.5833 13.5H23.0833ZM17.3333 22.75H19.3333V21.25H17.3333V22.75ZM23.0833 17V13.5H21.5833V17H23.0833ZM19.3333 22.75C19.7893 22.75 20.1683 22.75 20.4783 22.73C20.7953 22.708 21.0953 22.662 21.3853 22.541L20.8113 21.155C20.7343 21.187 20.6173 21.216 20.3763 21.233C20.1293 21.25 19.8093 21.25 19.3333 21.25V22.75ZM21.5833 19C21.5833 19.476 21.5833 19.796 21.5663 20.043C21.5493 20.284 21.5203 20.401 21.4883 20.478L22.8743 21.052C22.9943 20.762 23.0413 20.462 23.0623 20.145C23.0833 19.835 23.0833 19.455 23.0833 19H21.5833ZM21.3853 22.541C21.7191 22.4029 22.0223 22.1994 22.2778 21.9441C22.5333 21.6888 22.736 21.3857 22.8743 21.052L21.4883 20.478C21.4255 20.6298 21.3334 20.7677 21.2172 20.8839C21.101 21.0001 20.9631 21.0922 20.8113 21.155L21.3853 22.541Z" fill="white"/>
<path d="M2.33331 7.1C2.33331 5.136 2.33331 4.154 2.77531 3.433C3.02261 3.02954 3.36185 2.6903 3.76531 2.443C4.48831 2 5.47031 2 7.43331 2C8.74331 2 9.39731 2 9.87831 2.295C10.1473 2.45987 10.3734 2.68602 10.5383 2.955C10.8333 3.435 10.8333 4.091 10.8333 5.4V6.5C10.8333 8.386 10.8333 9.328 10.2473 9.914C9.66131 10.5 8.71931 10.5 6.83331 10.5H5.73331C4.42331 10.5 3.76931 10.5 3.28831 10.205C3.01934 10.0401 2.79318 9.81398 2.62831 9.545C2.33331 9.065 2.33331 8.409 2.33331 7.1Z" stroke="white"/>
<path d="M5.33331 6.25C5.33331 5.735 5.33331 5.477 5.46331 5.295C5.50861 5.2308 5.56439 5.17468 5.62831 5.129C5.81031 5 6.06831 5 6.58331 5C7.09831 5 7.35631 5 7.53831 5.13C7.60251 5.17529 7.65863 5.23107 7.70431 5.295C7.83331 5.477 7.83331 5.735 7.83331 6.25C7.83331 6.765 7.83331 7.023 7.70331 7.205C7.65802 7.2692 7.60224 7.32532 7.53831 7.371C7.35631 7.5 7.09831 7.5 6.58331 7.5C6.06831 7.5 5.81031 7.5 5.62831 7.37C5.56411 7.32471 5.50799 7.26893 5.46231 7.205C5.33331 7.023 5.33331 6.765 5.33331 6.25ZM5.33331 17.75C5.33331 17.235 5.33331 16.977 5.46331 16.795C5.50861 16.7308 5.56439 16.6747 5.62831 16.629C5.81031 16.5 6.06831 16.5 6.58331 16.5C7.09831 16.5 7.35631 16.5 7.53831 16.63C7.60251 16.6753 7.65863 16.7311 7.70431 16.795C7.83331 16.977 7.83331 17.235 7.83331 17.75C7.83331 18.265 7.83331 18.523 7.70331 18.705C7.65802 18.7692 7.60224 18.8253 7.53831 18.871C7.35631 19 7.09831 19 6.58331 19C6.06831 19 5.81031 19 5.62831 18.87C5.56411 18.8247 5.50799 18.7689 5.46231 18.705C5.33331 18.523 5.33331 18.265 5.33331 17.75ZM16.3333 17.75C16.3333 17.048 16.3333 16.697 16.5023 16.444C16.5751 16.3352 16.6685 16.2418 16.7773 16.169C17.0303 16 17.3813 16 18.0833 16C18.7853 16 19.1363 16 19.3893 16.169C19.4981 16.2418 19.5915 16.3352 19.6643 16.444C19.8333 16.697 19.8333 17.048 19.8333 17.75C19.8333 18.452 19.8333 18.803 19.6643 19.056C19.5915 19.1648 19.4981 19.2582 19.3893 19.331C19.1363 19.5 18.7853 19.5 18.0833 19.5C17.3813 19.5 17.0303 19.5 16.7773 19.331C16.6685 19.2582 16.5751 19.1648 16.5023 19.056C16.3333 18.803 16.3333 18.452 16.3333 17.75Z" fill="white"/>
</svg>
