<svg width="64" height="64" viewBox="0 0 64 64" fill="none" xmlns="http://www.w3.org/2000/svg">
<path d="M6.12 38.5467L7.8249 39.5923L7.82518 39.5919L6.12 38.5467ZM7.88 36.7867L8.92518 38.4919L8.92721 38.4906L7.88 36.7867ZM27.2133 56.12L25.5084 55.0744L25.5082 55.0749L27.2133 56.12ZM25.4533 57.88L24.4082 56.1749L24.4061 56.1761L25.4533 57.88ZM9.15467 57.488L10.2 55.7829L10.1998 55.7829L9.15467 57.488ZM6.51467 54.848L4.80933 55.8929L4.8095 55.8932L6.51467 54.848ZM36.7867 7.88004L38.4916 8.92566L38.4918 8.92521L36.7867 7.88004ZM38.5467 6.12004L39.5918 7.82521L39.5939 7.82397L38.5467 6.12004ZM54.848 6.51204L55.8932 4.80687L55.8922 4.80629L54.848 6.51204ZM57.488 9.15204L59.1944 8.10885L59.1932 8.10687L57.488 9.15204ZM57.88 25.4534L56.1751 24.4078L56.1748 24.4082L57.88 25.4534ZM56.12 27.2134L55.0748 25.5082L55.0728 25.5094L56.12 27.2134ZM38.3707 36.8987L39.4817 38.5617L39.4824 38.5613L38.3707 36.8987ZM36.8987 38.3707L38.5612 39.4824L38.5617 39.4817L36.8987 38.3707ZM55.3733 58.2614L54.6084 56.4134L54.608 56.4136L55.3733 58.2614ZM58.2613 55.3734L56.4135 54.6081L56.4134 54.6084L58.2613 55.3734ZM6.512 9.15471L8.2171 10.2L8.21717 10.1999L6.512 9.15471ZM9.152 6.51471L8.1071 4.80937L8.10683 4.80953L9.152 6.51471ZM25.4533 6.12004L24.4077 7.82494L24.4082 7.82521L25.4533 6.12004ZM27.2133 7.88004L25.5082 8.92521L25.5094 8.92724L27.2133 7.88004ZM7.88 27.2134L8.92562 25.5085L8.92517 25.5082L7.88 27.2134ZM6.12 25.4534L7.82518 24.4082L7.82393 24.4062L6.12 25.4534ZM7.33334 45.0667C7.33334 43.2812 7.33545 42.0835 7.42267 41.1672C7.50702 40.2811 7.65664 39.8667 7.8249 39.5923L4.41511 37.5011C3.7967 38.5094 3.55298 39.6083 3.44067 40.7882C3.33122 41.938 3.33334 43.3588 3.33334 45.0667H7.33334ZM7.82518 39.5919C8.09995 39.1436 8.47688 38.7667 8.92517 38.4919L6.83483 35.0815C5.84859 35.686 5.01934 36.5153 4.41483 37.5015L7.82518 39.5919ZM8.92721 38.4906C9.19894 38.3236 9.61266 38.1738 10.5004 38.0894C11.4174 38.0022 12.6159 38 14.4 38V34C12.6934 34 11.272 33.9979 10.1216 34.1074C8.94201 34.2196 7.84106 34.4631 6.8328 35.0828L8.92721 38.4906ZM14.4 38H17.3333V34H14.4V38ZM17.3333 38C19.9046 38 21.631 38.0043 22.9187 38.1775C24.1484 38.343 24.675 38.6288 25.0231 38.9769L27.8515 36.1485C26.637 34.9339 25.1262 34.4385 23.452 34.2132C21.8356 33.9958 19.7914 34 17.3333 34V38ZM25.0231 38.9769C25.3712 39.325 25.6571 39.8516 25.8225 41.0814C25.9957 42.369 26 44.0954 26 46.6667H30C30 44.2086 30.0043 42.1644 29.7868 40.5481C29.5616 38.8738 29.0661 37.3631 27.8515 36.1485L25.0231 38.9769ZM26 46.6667V49.6H30V46.6667H26ZM26 49.6C26 51.3855 25.9979 52.5833 25.9107 53.4995C25.8263 54.3857 25.6767 54.8001 25.5084 55.0744L28.9182 57.1657C29.5366 56.1573 29.7804 55.0584 29.8927 53.8786C30.0021 52.7288 30 51.3079 30 49.6H26ZM25.5082 55.0749C25.2334 55.5232 24.8565 55.9001 24.4082 56.1749L26.4985 59.5852C27.4848 58.9807 28.314 58.1515 28.9185 57.1652L25.5082 55.0749ZM24.4061 56.1761C24.1344 56.3431 23.7207 56.4929 22.8329 56.5774C21.916 56.6646 20.7174 56.6667 18.9333 56.6667V60.6667C20.6399 60.6667 22.0614 60.6688 23.2117 60.5594C24.3913 60.4472 25.4923 60.2036 26.5005 59.584L24.4061 56.1761ZM18.9333 56.6667C16.2759 56.6667 14.4233 56.6646 12.9903 56.5283C11.587 56.3949 10.7941 56.1471 10.2 55.7829L8.10938 59.1931C9.43795 60.0076 10.9157 60.3491 12.6117 60.5104C14.278 60.6688 16.3534 60.6667 18.9333 60.6667V56.6667ZM10.1998 55.7829C9.39292 55.2883 8.71444 54.6098 8.21984 53.8029L4.8095 55.8932C5.63383 57.2381 6.76462 58.3689 8.1095 59.1932L10.1998 55.7829ZM8.22001 53.8031C7.85381 53.2055 7.60562 52.4111 7.47198 51.0087C7.33546 49.5759 7.33334 47.7242 7.33334 45.0667H3.33334C3.33334 47.6466 3.33122 49.7215 3.49002 51.3881C3.65172 53.085 3.9942 54.5626 4.80933 55.8929L8.22001 53.8031ZM38 14.4C38 12.6146 38.0021 11.4168 38.0893 10.5006C38.1737 9.61442 38.3233 9.20001 38.4916 8.92566L35.0818 6.83442C34.4634 7.84273 34.2196 8.94166 34.1073 10.1215C33.9979 11.2713 34 12.6922 34 14.4H38ZM38.4918 8.92521C38.7666 8.47692 39.1435 8.09999 39.5918 7.82521L37.5015 4.41487C36.5153 5.01938 35.686 5.84862 35.0815 6.83487L38.4918 8.92521ZM39.5939 7.82397C39.8656 7.65696 40.2793 7.50717 41.1671 7.42272C42.084 7.33549 43.2826 7.33337 45.0667 7.33337V3.33337C43.3601 3.33337 41.9386 3.33126 40.7883 3.4407C39.6087 3.55291 38.5077 3.79645 37.4995 4.41612L39.5939 7.82397ZM45.0667 7.33337C47.724 7.33337 49.5767 7.33548 51.0101 7.47173C52.4136 7.60515 53.2078 7.85296 53.8038 8.21779L55.8922 4.80629C54.5628 3.99246 53.085 3.65093 51.3886 3.48968C49.722 3.33127 47.6466 3.33337 45.0667 3.33337V7.33337ZM53.8028 8.21721C54.6098 8.71181 55.2882 9.39029 55.7828 10.1972L59.1932 8.10687C58.3688 6.76199 57.2381 5.6312 55.8932 4.80687L53.8028 8.21721ZM55.7816 10.1952C56.1471 10.793 56.3949 11.5885 56.5283 12.992C56.6646 14.4254 56.6667 16.2774 56.6667 18.9334H60.6667C60.6667 16.3547 60.6688 14.28 60.5104 12.6135C60.3491 10.9169 60.0076 9.43904 59.1944 8.10885L55.7816 10.1952ZM56.6667 18.9334C56.6667 20.7188 56.6646 21.9166 56.5773 22.8328C56.493 23.719 56.3434 24.1334 56.1751 24.4078L59.5849 26.499C60.2033 25.4907 60.447 24.3918 60.5593 23.2119C60.6688 22.0621 60.6667 20.6412 60.6667 18.9334H56.6667ZM56.1748 24.4082C55.9 24.8565 55.5231 25.2334 55.0748 25.5082L57.1652 28.9185C58.1514 28.314 58.9807 27.4848 59.5852 26.4985L56.1748 24.4082ZM55.0728 25.5094C54.8011 25.6765 54.3873 25.8262 53.4996 25.9107C52.5826 25.9979 51.3841 26 49.6 26V30C51.3066 30 52.7281 30.0022 53.8784 29.8927C55.058 29.7805 56.1589 29.537 57.1672 28.9173L55.0728 25.5094ZM49.6 26H46.6667V30H49.6V26ZM46.6667 26C44.0954 26 42.369 25.9958 41.0813 25.8226C39.8516 25.6571 39.325 25.3712 38.9769 25.0232L36.1485 27.8516C37.363 29.0662 38.8738 29.5616 40.548 29.7868C42.1644 30.0043 44.2086 30 46.6667 30V26ZM38.9769 25.0232C38.6288 24.6751 38.3429 24.1485 38.1775 22.9187C38.0043 21.6311 38 19.9046 38 17.3334H34C34 19.7914 33.9957 21.8357 34.2132 23.452C34.4384 25.1263 34.9339 26.637 36.1485 27.8516L38.9769 25.0232ZM38 17.3334V14.4H34V17.3334H38ZM50.6667 34H45.3333V38H50.6667V34ZM45.3333 34C43.5016 34 41.9776 33.9976 40.7486 34.1226C39.4862 34.2511 38.3146 34.5303 37.259 35.2361L39.4824 38.5613C39.7707 38.3685 40.2072 38.1984 41.1534 38.1021C42.133 38.0025 43.4184 38 45.3333 38V34ZM37.2596 35.2357C36.4586 35.7709 35.7708 36.4586 35.2356 37.2597L38.5617 39.4817C38.8049 39.1176 39.1176 38.805 39.4817 38.5617L37.2596 35.2357ZM35.2361 37.259C34.5301 38.3149 34.251 39.4873 34.1226 40.7497C33.9976 41.979 34 43.503 34 45.3334H38C38 43.4198 38.0024 42.1344 38.1021 41.1544C38.1984 40.2074 38.3686 39.7705 38.5612 39.4824L35.2361 37.259ZM45.3333 60.6667H50.6667V56.6667H45.3333V60.6667ZM50.6667 60.6667C51.882 60.6667 52.8935 60.6678 53.7209 60.6114C54.5661 60.5538 55.3647 60.4297 56.1386 60.1092L54.608 56.4136C54.4033 56.4984 54.0912 56.5769 53.4491 56.6207C52.7891 56.6656 51.9367 56.6667 50.6667 56.6667V60.6667ZM56.1383 60.1093C57.0286 59.7408 57.8376 59.2004 58.5189 58.519L55.6905 55.6906C55.3808 56.0003 55.0131 56.2459 54.6084 56.4134L56.1383 60.1093ZM58.5189 58.519C59.2003 57.8376 59.7407 57.0286 60.1093 56.1383L56.4134 54.6084C56.2459 55.0131 56.0002 55.3808 55.6905 55.6906L58.5189 58.519ZM60.1091 56.1387C60.4296 55.3648 60.5538 54.5662 60.6114 53.721C60.6677 52.8936 60.6667 51.882 60.6667 50.6667H56.6667C56.6667 51.9367 56.6656 52.7892 56.6206 53.4491C56.5769 54.0913 56.4983 54.4033 56.4135 54.6081L60.1091 56.1387ZM7.33334 18.9334C7.33334 16.276 7.33545 14.4234 7.47169 12.9903C7.60511 11.587 7.8529 10.7941 8.2171 10.2L4.8069 8.10942C3.99244 9.43799 3.65089 10.9158 3.48965 12.6117C3.33123 14.278 3.33334 16.3534 3.33334 18.9334H7.33334ZM8.21717 10.1999C8.71177 9.39295 9.39025 8.71448 10.1972 8.21988L8.10683 4.80953C6.76195 5.63387 5.63116 6.76466 4.80683 8.10953L8.21717 10.1999ZM10.1969 8.22005C10.7944 7.85394 11.5894 7.60569 12.9923 7.47203C14.4255 7.33549 16.2772 7.33337 18.9333 7.33337V3.33337C16.3548 3.33337 14.2798 3.33126 12.613 3.49006C10.916 3.65173 9.4376 3.99414 8.1071 4.80937L10.1969 8.22005ZM18.9333 7.33337C20.7188 7.33337 21.9166 7.33549 22.8328 7.42271C23.719 7.50706 24.1334 7.65668 24.4077 7.82494L26.499 4.41514C25.4906 3.79674 24.3917 3.55302 23.2119 3.44071C22.0621 3.33126 20.6412 3.33337 18.9333 3.33337V7.33337ZM24.4082 7.82521C24.8565 8.09999 25.2334 8.47692 25.5082 8.92521L28.9185 6.83487C28.314 5.84862 27.4848 5.01938 26.4985 4.41487L24.4082 7.82521ZM25.5094 8.92724C25.6764 9.19898 25.8262 9.6127 25.9107 10.5004C25.9979 11.4174 26 12.616 26 14.4H30C30 12.6934 30.0021 11.272 29.8927 10.1216C29.7805 8.94205 29.5369 7.8411 28.9173 6.83284L25.5094 8.92724ZM26 14.4V17.3334H30V14.4H26ZM26 17.3334C26 19.9046 25.9957 21.6311 25.8225 22.9187C25.6571 24.1485 25.3712 24.6751 25.0231 25.0232L27.8515 27.8516C29.0661 26.637 29.5616 25.1263 29.7868 23.452C30.0043 21.8357 30 19.7914 30 17.3334H26ZM25.0231 25.0232C24.675 25.3712 24.1484 25.6571 22.9187 25.8226C21.631 25.9958 19.9046 26 17.3333 26V30C19.7914 30 21.8356 30.0043 23.452 29.7868C25.1262 29.5616 26.637 29.0662 27.8515 27.8516L25.0231 25.0232ZM17.3333 26H14.4V30H17.3333V26ZM14.4 26C12.6145 26 11.4168 25.9979 10.5005 25.9107C9.61439 25.8264 9.19998 25.6767 8.92562 25.5085L6.83438 28.9183C7.8427 29.5367 8.94162 29.7804 10.1215 29.8927C11.2712 30.0022 12.6921 30 14.4 30V26ZM8.92517 25.5082C8.47688 25.2334 8.09995 24.8565 7.82518 24.4082L4.41483 26.4985C5.01934 27.4848 5.84859 28.314 6.83483 28.9185L8.92517 25.5082ZM7.82393 24.4062C7.65693 24.1344 7.50713 23.7207 7.42268 22.833C7.33545 21.916 7.33334 20.7174 7.33334 18.9334H3.33334C3.33334 20.64 3.33122 22.0614 3.44066 23.2118C3.55287 24.3914 3.79641 25.4923 4.41608 26.5006L7.82393 24.4062Z" fill="#521ABD"/>
<path d="M44 16.6667C44 15.2934 44 14.6054 44.3467 14.12C44.4674 13.9488 44.6162 13.7992 44.7867 13.6774C45.272 13.3334 45.96 13.3334 47.3333 13.3334C48.7067 13.3334 49.3947 13.3334 49.88 13.68C50.0512 13.8008 50.2009 13.9496 50.3227 14.12C50.6667 14.6054 50.6667 15.2934 50.6667 16.6667C50.6667 18.04 50.6667 18.728 50.32 19.2134C50.1992 19.3846 50.0505 19.5342 49.88 19.656C49.3947 20 48.7067 20 47.3333 20C45.96 20 45.272 20 44.7867 19.6534C44.6155 19.5326 44.4658 19.3838 44.344 19.2134C44 18.728 44 18.04 44 16.6667Z" fill="#7133F5"/>
<path d="M34 58.6667C34 59.1971 34.2107 59.7058 34.5858 60.0809C34.9609 60.456 35.4696 60.6667 36 60.6667C36.5304 60.6667 37.0391 60.456 37.4142 60.0809C37.7893 59.7058 38 59.1971 38 58.6667H34ZM34 50.6667V58.6667H38V50.6667H34Z" fill="#7133F5"/>
<path d="M60.6667 36C60.6667 35.4696 60.456 34.9609 60.0809 34.5858C59.7058 34.2108 59.1971 34 58.6667 34C58.1362 34 57.6275 34.2108 57.2525 34.5858C56.8774 34.9609 56.6667 35.4696 56.6667 36H60.6667ZM60.6667 45.3334V36H56.6667V45.3334H60.6667Z" fill="#7133F5"/>
<path d="M13.3333 16.6667C13.3333 15.2934 13.3333 14.6054 13.68 14.12C13.8008 13.9488 13.9495 13.7992 14.12 13.6774C14.6053 13.3334 15.2933 13.3334 16.6667 13.3334C18.04 13.3334 18.728 13.3334 19.2133 13.68C19.3845 13.8008 19.5342 13.9496 19.656 14.12C20 14.6054 20 15.2934 20 16.6667C20 18.04 20 18.728 19.6533 19.2134C19.5326 19.3846 19.3838 19.5342 19.2133 19.656C18.728 20 18.04 20 16.6667 20C15.2933 20 14.6053 20 14.12 19.6534C13.9488 19.5326 13.7992 19.3838 13.6773 19.2134C13.3333 18.728 13.3333 18.04 13.3333 16.6667ZM13.3333 47.3334C13.3333 45.96 13.3333 45.272 13.68 44.7867C13.8008 44.6155 13.9495 44.4659 14.12 44.344C14.6053 44 15.2933 44 16.6667 44C18.04 44 18.728 44 19.2133 44.3467C19.3845 44.4675 19.5342 44.6162 19.656 44.7867C20 45.272 20 45.96 20 47.3334C20 48.7067 20 49.3947 19.6533 49.88C19.5326 50.0512 19.3838 50.2009 19.2133 50.3227C18.728 50.6667 18.04 50.6667 16.6667 50.6667C15.2933 50.6667 14.6053 50.6667 14.12 50.32C13.9488 50.1993 13.7992 50.0505 13.6773 49.88C13.3333 49.3947 13.3333 48.7067 13.3333 47.3334ZM42.6667 47.3334C42.6667 45.4614 42.6667 44.5254 43.1173 43.8507C43.3114 43.5606 43.5606 43.3115 43.8507 43.1174C44.5253 42.6667 45.4613 42.6667 47.3333 42.6667C49.2053 42.6667 50.1413 42.6667 50.816 43.1174C51.1061 43.3115 51.3552 43.5606 51.5493 43.8507C52 44.5254 52 45.4614 52 47.3334C52 49.2054 52 50.1414 51.5493 50.816C51.3552 51.1061 51.1061 51.3553 50.816 51.5494C50.1413 52 49.2053 52 47.3333 52C45.4613 52 44.5253 52 43.8507 51.5494C43.5606 51.3553 43.3114 51.1061 43.1173 50.816C42.6667 50.1414 42.6667 49.2054 42.6667 47.3334Z" fill="#7133F5"/>
</svg>
